<?xml version="1.0" encoding="UTF-8"?>
<svg xmlns="http://www.w3.org/2000/svg" version="1.1" width="800" height="800" viewBox="0 0 800 800"><rect x="0" y="0" width="800" height="800" fill="#ffffff"/><g transform="scale(24.242)"><g transform="translate(0,0)"><path fill-rule="evenodd" d="M10 0L10 2L11 2L11 0ZM12 0L12 1L13 1L13 0ZM14 0L14 2L15 2L15 3L17 3L17 4L19 4L19 5L18 5L18 7L19 7L19 8L17 8L17 9L16 9L16 8L15 8L15 6L16 6L16 7L17 7L17 6L16 6L16 5L15 5L15 4L14 4L14 3L13 3L13 2L12 2L12 4L14 4L14 5L11 5L11 6L10 6L10 4L11 4L11 3L8 3L8 4L9 4L9 5L8 5L8 7L9 7L9 8L6 8L6 9L5 9L5 8L0 8L0 9L2 9L2 10L3 10L3 12L2 12L2 11L1 11L1 10L0 10L0 11L1 11L1 12L2 12L2 13L0 13L0 14L3 14L3 15L0 15L0 16L1 16L1 17L2 17L2 16L4 16L4 18L2 18L2 19L1 19L1 20L0 20L0 25L1 25L1 22L2 22L2 21L4 21L4 22L3 22L3 25L4 25L4 24L5 24L5 25L7 25L7 24L8 24L8 22L15 22L15 24L13 24L13 23L11 23L11 24L10 24L10 23L9 23L9 24L10 24L10 26L9 26L9 25L8 25L8 27L9 27L9 28L8 28L8 33L10 33L10 31L11 31L11 30L12 30L12 32L13 32L13 33L14 33L14 32L15 32L15 33L16 33L16 32L17 32L17 33L18 33L18 32L17 32L17 31L19 31L19 32L20 32L20 31L21 31L21 32L22 32L22 33L25 33L25 32L27 32L27 33L28 33L28 32L29 32L29 33L30 33L30 32L31 32L31 33L32 33L32 32L31 32L31 31L32 31L32 30L31 30L31 29L32 29L32 28L33 28L33 27L32 27L32 26L33 26L33 24L32 24L32 26L31 26L31 25L30 25L30 26L29 26L29 24L31 24L31 23L32 23L32 22L33 22L33 21L32 21L32 20L31 20L31 19L32 19L32 18L33 18L33 17L32 17L32 16L31 16L31 15L32 15L32 14L33 14L33 13L31 13L31 15L30 15L30 16L31 16L31 19L30 19L30 17L29 17L29 15L26 15L26 16L24 16L24 15L25 15L25 14L27 14L27 13L30 13L30 12L31 12L31 11L32 11L32 10L33 10L33 9L32 9L32 8L31 8L31 9L30 9L30 8L29 8L29 9L30 9L30 10L28 10L28 12L27 12L27 13L26 13L26 12L25 12L25 11L26 11L26 10L27 10L27 9L28 9L28 8L27 8L27 9L26 9L26 8L24 8L24 7L25 7L25 6L24 6L24 7L23 7L23 6L22 6L22 5L21 5L21 6L20 6L20 7L19 7L19 5L20 5L20 4L21 4L21 3L22 3L22 4L23 4L23 5L24 5L24 4L25 4L25 3L23 3L23 1L25 1L25 0L23 0L23 1L22 1L22 2L19 2L19 3L17 3L17 1L20 1L20 0L17 0L17 1L15 1L15 0ZM8 1L8 2L9 2L9 1ZM19 3L19 4L20 4L20 3ZM9 6L9 7L10 7L10 6ZM11 6L11 7L12 7L12 9L11 9L11 8L10 8L10 9L6 9L6 10L4 10L4 9L3 9L3 10L4 10L4 12L3 12L3 14L4 14L4 15L5 15L5 16L7 16L7 17L6 17L6 18L7 18L7 19L6 19L6 20L8 20L8 21L10 21L10 20L11 20L11 21L13 21L13 20L14 20L14 21L15 21L15 22L17 22L17 24L15 24L15 25L13 25L13 24L11 24L11 25L13 25L13 26L14 26L14 27L12 27L12 26L10 26L10 27L12 27L12 28L10 28L10 29L9 29L9 31L10 31L10 29L12 29L12 30L14 30L14 31L13 31L13 32L14 32L14 31L15 31L15 30L16 30L16 31L17 31L17 30L19 30L19 31L20 31L20 30L19 30L19 29L21 29L21 31L22 31L22 30L23 30L23 32L25 32L25 31L26 31L26 30L27 30L27 31L29 31L29 30L28 30L28 29L26 29L26 30L25 30L25 31L24 31L24 30L23 30L23 29L24 29L24 28L23 28L23 27L22 27L22 26L24 26L24 24L23 24L23 23L24 23L24 22L26 22L26 21L27 21L27 20L28 20L28 19L27 19L27 20L26 20L26 21L25 21L25 20L23 20L23 21L24 21L24 22L21 22L21 23L20 23L20 22L17 22L17 21L16 21L16 20L19 20L19 21L22 21L22 20L20 20L20 18L21 18L21 17L22 17L22 18L23 18L23 19L25 19L25 18L26 18L26 17L27 17L27 18L29 18L29 17L27 17L27 16L26 16L26 17L25 17L25 18L23 18L23 17L22 17L22 16L23 16L23 15L24 15L24 14L25 14L25 13L24 13L24 12L23 12L23 11L25 11L25 9L24 9L24 10L23 10L23 9L22 9L22 8L19 8L19 9L17 9L17 10L16 10L16 9L15 9L15 8L14 8L14 6L13 6L13 7L12 7L12 6ZM21 6L21 7L22 7L22 6ZM13 8L13 9L12 9L12 10L13 10L13 11L12 11L12 13L14 13L14 14L10 14L10 15L8 15L8 14L9 14L9 13L11 13L11 12L9 12L9 10L8 10L8 11L7 11L7 10L6 10L6 11L5 11L5 13L7 13L7 14L6 14L6 15L7 15L7 16L10 16L10 17L12 17L12 18L13 18L13 17L14 17L14 18L15 18L15 20L16 20L16 19L17 19L17 17L19 17L19 18L20 18L20 17L21 17L21 16L22 16L22 15L23 15L23 14L24 14L24 13L23 13L23 12L22 12L22 11L23 11L23 10L22 10L22 11L19 11L19 10L21 10L21 9L19 9L19 10L17 10L17 11L16 11L16 10L15 10L15 9L14 9L14 8ZM10 9L10 11L11 11L11 9ZM13 9L13 10L14 10L14 11L13 11L13 12L14 12L14 13L15 13L15 14L14 14L14 15L12 15L12 16L14 16L14 17L15 17L15 18L16 18L16 17L17 17L17 16L18 16L18 14L19 14L19 16L21 16L21 15L20 15L20 14L19 14L19 13L22 13L22 12L19 12L19 11L17 11L17 12L16 12L16 11L15 11L15 10L14 10L14 9ZM30 10L30 11L29 11L29 12L30 12L30 11L31 11L31 10ZM6 11L6 12L7 12L7 11ZM15 12L15 13L16 13L16 14L15 14L15 17L16 17L16 15L17 15L17 13L19 13L19 12L17 12L17 13L16 13L16 12ZM10 15L10 16L11 16L11 15ZM7 17L7 18L9 18L9 19L8 19L8 20L10 20L10 18L9 18L9 17ZM3 19L3 20L4 20L4 21L5 21L5 22L7 22L7 21L5 21L5 20L4 20L4 19ZM11 19L11 20L12 20L12 19ZM29 19L29 21L28 21L28 23L27 23L27 24L29 24L29 21L30 21L30 23L31 23L31 20L30 20L30 19ZM5 23L5 24L7 24L7 23ZM21 23L21 24L20 24L20 25L19 25L19 24L17 24L17 25L19 25L19 26L20 26L20 25L21 25L21 24L22 24L22 25L23 25L23 24L22 24L22 23ZM25 23L25 24L26 24L26 23ZM25 25L25 28L28 28L28 25ZM15 26L15 27L14 27L14 28L12 28L12 29L16 29L16 30L17 30L17 29L19 29L19 28L22 28L22 27L18 27L18 28L17 28L17 29L16 29L16 28L15 28L15 27L17 27L17 26ZM26 26L26 27L27 27L27 26ZM30 26L30 27L31 27L31 26ZM29 28L29 29L31 29L31 28ZM0 0L0 7L7 7L7 0ZM1 1L1 6L6 6L6 1ZM2 2L2 5L5 5L5 2ZM26 0L26 7L33 7L33 0ZM27 1L27 6L32 6L32 1ZM28 2L28 5L31 5L31 2ZM0 26L0 33L7 33L7 26ZM1 27L1 32L6 32L6 27ZM2 28L2 31L5 31L5 28Z" fill="#000000"/></g></g></svg>
